#!OML:ASF E:\Steps\Project 1\Capture day 1\Session 2\Subject.ASF
:FULLY-SPECIFIED
:DEGREES
1
root 8.83219 16.3497 30.954 -152.745 -1.01892 178.464
lowerback -28.6564 -1.65155 -6.91511
upperback -2.12051 -0.655409 -0.730332
thorax 12.7986 -0.989179 2.65111
lowerneck -7.20993 -2.77174 1.5306
upperneck -0.84297 -3.99112 1.82861
head 0.943639 -2.02922 0.191717
rclavicle 6.85807e-015 6.24184e-014
rhumerus -36.9263 -21.0924 -79.7932
rradius 29.6483
rwrist 0.74574
rhand -7.19772 -55.4863
rfingers 7.12502
rthumb 18.6807 -84.6093
lclavicle 6.85807e-015 6.24184e-014
lhumerus -30.1698 9.12349 79.5159
lradius 20.0001
lwrist -7.17706
lhand -22.9002 -13.1662
lfingers 7.12502
lthumb 3.53946 16.7842
rfemur -22.8665 6.62569 17.2355
rtibia 5.2417
rfoot -24.4628 -8.84196
rtoes -21.1978
lfemur -24.0483 -10.1212 -18.8159
ltibia 7.627
lfoot -8.60679 2.19857
ltoes -33.2335
2
root 8.82965 16.3442 30.948 -152.527 -0.964328 178.516
lowerback -28.8469 -1.57495 -6.86243
upperback -2.23896 -0.592992 -0.700097
thorax 12.7437 -0.965855 2.67363
lowerneck -7.07958 -2.84623 1.48662
upperneck -0.88712 -4.07663 1.71017
head 0.905636 -2.07308 0.162919
rclavicle 2.38542e-015 1.63003e-014
rhumerus -37.148 -20.8265 -79.781
rradius 29.8798
rwrist 0.138355
rhand -7.86415 -53.7907
rfingers 7.12502
rthumb 18.0396 -82.9741
lclavicle 2.38542e-015 1.63003e-014
lhumerus -30.3078 9.04278 79.6092
lradius 19.9755
lwrist -7.16252
lhand -22.6242 -13.2905
lfingers 7.12502
lthumb 3.80605 16.6553
rfemur -23.0958 6.61209 17.2693
rtibia 5.27192
rfoot -24.5354 -8.82866
rtoes -20.4828
lfemur -24.2314 -10.2204 -18.7058
ltibia 7.55927
lfoot -8.72156 2.35311
ltoes -31.2618
3
root 8.828 16.3409 30.945 -152.404 -0.943881 178.577
lowerback -28.9746 -1.54043 -6.77153
upperback -2.2747 -0.579932 -0.696895
thorax 12.7597 -0.959499 2.62992
lowerneck -6.92523 -2.82565 1.39439
upperneck -1.03915 -4.03905 1.76788
head 0.834589 -2.05699 0.200964
rclavicle -4.27387e-015 7.15625e-015
rhumerus -37.2061 -20.6758 -79.838
rradius 30.1314
rwrist 0.274793
rhand -7.65901 -55.3929
rfingers 7.12502
rthumb 18.2369 -84.558
lclavicle -4.27387e-015 7.15625e-015
lhumerus -30.3792 8.9249 79.6245
lradius 20.0253
lwrist -7.05255
lhand -22.3481 -13.3725
lfingers 7.12502
lthumb 4.07267 16.5683
rfemur -23.253 6.43871 17.3752
rtibia 5.29113
rfoot -24.4374 -8.65836
rtoes -20.1427
lfemur -24.3446 -10.245 -18.61
ltibia 7.53303
lfoot -8.6509 2.4373
ltoes -30.8346
4
root 8.82817 16.3394 30.9446 -152.312 -0.960081 178.621
lowerback -29.06 -1.55132 -6.75621
upperback -2.28207 -0.600855 -0.661391
thorax 12.7922 -0.971166 2.65019
lowerneck -6.5428 -2.81832 1.22344
upperneck -1.46133 -4.011 1.9115
head 0.64426 -2.05148 0.284034
rclavicle -9.93923e-015 -1.19271e-015
rhumerus -37.2536 -20.6372 -79.7936
rradius 29.9874
rwrist 0.0240632
rhand -7.8701 -53.6721
rfingers 7.12502
rthumb 18.0338 -82.8561
lclavicle -9.93923e-015 -1.19271e-015
lhumerus -30.3956 9.00254 79.6131
lradius 20.0097
lwrist -7.12447
lhand -22.091 -13.513
lfingers 7.12502
lthumb 4.32088 16.4229
rfemur -23.3708 6.48556 17.4111
rtibia 5.30432
rfoot -24.4327 -8.71085
rtoes -19.703
lfemur -24.4697 -10.2167 -18.5262
ltibia 7.57823
lfoot -8.61407 2.41913
ltoes -30.4147
5
root 8.82907 16.3395 30.9461 -152.261 -0.976563 178.671
lowerback -29.0815 -1.55464 -6.72897
upperback -2.28643 -0.6159 -0.641032
thorax 12.7989 -0.977374 2.65138
lowerneck -6.40393 -2.84185 1.1722
upperneck -1.60517 -4.03777 2.01249
head 0.579596 -2.06761 0.32614
rclavicle -2.08724e-015 -3.57812e-015
rhumerus -37.2294 -20.5883 -79.8297
rradius 29.9884
rwrist -0.0393382
rhand -7.85648 -53.5284
rfingers 7.12502
rthumb 18.0469 -82.7112
lclavicle -2.08724e-015 -3.57812e-015
lhumerus -30.3729 9.11533 79.5606
lradius 19.9393
lwrist -7.23877
lhand -21.8378 -13.6918
lfingers 7.12502
lthumb 4.56538 16.239
rfemur -23.4753 6.65594 17.4284
rtibia 5.41111
rfoot -24.2858 -8.81019
rtoes -20.3872
lfemur -24.5785 -10.188 -18.4303
ltibia 7.65182
lfoot -8.70554 2.37282
ltoes -30.0172
6
root 8.83022 16.3408 30.9499 -152.261 -0.994573 178.703
lowerback -28.9988 -1.55888 -6.70211
upperback -2.30274 -0.636649 -0.641267
thorax 12.7453 -0.983249 2.6307
lowerneck -6.44783 -2.85307 1.22649
upperneck -1.52964 -4.05732 2.0093
head 0.609334 -2.07579 0.314411
rclavicle 3.8763e-015 -3.97569e-015
rhumerus -37.2116 -20.6587 -79.8372
rradius 29.9407
rwrist 0.0327361
rhand -7.84649 -53.5657
rfingers 7.12502
rthumb 18.0565 -82.7476
lclavicle 3.8763e-015 -3.97569e-015
lhumerus -30.3832 9.08833 79.5155
lradius 19.9222
lwrist -7.1142
lhand -21.2319 -13.9868
lfingers 7.12502
lthumb 5.15047 15.9306
rfemur -23.555 6.66744 17.4725
rtibia 5.53834
rfoot -18.585 -9.08312
rtoes -32.1887
lfemur -24.647 -10.1714 -18.3578
ltibia 7.72972
lfoot -8.7358 2.3676
ltoes -30.6847
7
root 8.83033 16.3417 30.9522 -152.243 -0.97638 178.64
lowerback -28.9505 -1.58564 -6.79469
upperback -2.31479 -0.647501 -0.639512
thorax 12.7101 -0.992303 2.67928
lowerneck -6.56248 -2.84134 1.23938
upperneck -1.41539 -4.04476 1.98435
head 0.66341 -2.06686 0.302022
rclavicle 3.97569e-015 -2.70347e-014
rhumerus -37.2238 -20.7512 -79.7596
rradius 29.8946
rwrist 0.177435
rhand -7.80641 -53.5301
rfingers 7.12502
rthumb 18.0951 -82.7084
lclavicle 3.97569e-015 -2.70347e-014
lhumerus -30.4394 8.95474 79.569
lradius 19.9924
lwrist -6.86782
lhand -20.9851 -13.826
lfingers 7.12502
lthumb 5.38869 16.0854
rfemur -23.5897 6.6797 17.3729
rtibia 5.51581
rfoot -18.567 -9.15684
rtoes -32.1306
lfemur -24.6879 -10.1497 -18.4325
ltibia 7.7528
lfoot -8.66297 2.36403
ltoes -31.1331
